<mxfile host="65bd71144e">
    <diagram id="S6xc7Llp5G-0s0BcRKix" name="Page-1">
        <mxGraphModel dx="1612" dy="890" grid="1" gridSize="10" guides="1" tooltips="1" connect="1" arrows="1" fold="1" page="1" pageScale="1" pageWidth="827" pageHeight="1169" math="0" shadow="0">
            <root>
                <mxCell id="0"/>
                <mxCell id="1" parent="0"/>
                <mxCell id="42" value="" style="rounded=0;whiteSpace=wrap;html=1;fillColor=#CCE5FF;" vertex="1" parent="1">
                    <mxGeometry x="40" y="255" width="760" height="515" as="geometry"/>
                </mxCell>
                <mxCell id="40" value="" style="rounded=0;whiteSpace=wrap;html=1;fillColor=#EEFFC9;" vertex="1" parent="1">
                    <mxGeometry x="180" y="270" width="610" height="490" as="geometry"/>
                </mxCell>
                <mxCell id="27" value="" style="rounded=0;whiteSpace=wrap;html=1;fillColor=#FFE6CC;" vertex="1" parent="1">
                    <mxGeometry x="200" y="370" width="580" height="310" as="geometry"/>
                </mxCell>
                <mxCell id="2" value="Get 1. Order Trace Run&amp;nbsp;&lt;span style=&quot;background-color: transparent;&quot;&gt;[]&lt;/span&gt;" style="rounded=0;whiteSpace=wrap;html=1;fillColor=#D2E0B1;" vertex="1" parent="1">
                    <mxGeometry x="210" y="320" width="120" height="60" as="geometry"/>
                </mxCell>
                <mxCell id="53" style="edgeStyle=none;html=1;exitX=1;exitY=0.25;exitDx=0;exitDy=0;entryX=0;entryY=0.25;entryDx=0;entryDy=0;" edge="1" parent="1" source="3" target="6">
                    <mxGeometry relative="1" as="geometry"/>
                </mxCell>
                <mxCell id="3" value="Check Run 1&lt;div&gt;[Fault_1]&lt;/div&gt;" style="rounded=0;whiteSpace=wrap;html=1;fillColor=#FF9999;" vertex="1" parent="1">
                    <mxGeometry x="210" y="380" width="120" height="60" as="geometry"/>
                </mxCell>
                <mxCell id="33" style="edgeStyle=none;html=1;exitX=0.5;exitY=1;exitDx=0;exitDy=0;" edge="1" parent="1" source="4" target="13">
                    <mxGeometry relative="1" as="geometry"/>
                </mxCell>
                <mxCell id="4" value="Check Run n&lt;div&gt;[Fault_1]&lt;/div&gt;" style="rounded=0;whiteSpace=wrap;html=1;fillColor=#FF9999;" vertex="1" parent="1">
                    <mxGeometry x="210" y="460" width="120" height="60" as="geometry"/>
                </mxCell>
                <mxCell id="6" value="2. Order Trace Run&lt;div&gt;[Fault_1]&lt;/div&gt;" style="rounded=0;whiteSpace=wrap;html=1;fillColor=#FF9999;" vertex="1" parent="1">
                    <mxGeometry x="650" y="380" width="120" height="60" as="geometry"/>
                </mxCell>
                <mxCell id="7" value="Check Run 1&lt;div&gt;[Fault_2]&lt;/div&gt;" style="rounded=0;whiteSpace=wrap;html=1;fillColor=#FF9999;" vertex="1" parent="1">
                    <mxGeometry x="650" y="440" width="120" height="60" as="geometry"/>
                </mxCell>
                <mxCell id="8" value="Check Run n&lt;div&gt;[Fault_2]&lt;/div&gt;" style="rounded=0;whiteSpace=wrap;html=1;fillColor=#FF9999;" vertex="1" parent="1">
                    <mxGeometry x="650" y="520" width="120" height="60" as="geometry"/>
                </mxCell>
                <UserObject label="..." placeholders="1" name="Variable" id="9">
                    <mxCell style="text;html=1;strokeColor=none;fillColor=none;align=center;verticalAlign=middle;whiteSpace=wrap;overflow=hidden;" vertex="1" parent="1">
                        <mxGeometry x="230" y="440" width="80" height="20" as="geometry"/>
                    </mxCell>
                </UserObject>
                <UserObject label="..." placeholders="1" name="Variable" id="10">
                    <mxCell style="text;html=1;strokeColor=none;fillColor=none;align=center;verticalAlign=middle;whiteSpace=wrap;overflow=hidden;" vertex="1" parent="1">
                        <mxGeometry x="670" y="500" width="80" height="20" as="geometry"/>
                    </mxCell>
                </UserObject>
                <UserObject label="Fault_1, Fault_2" placeholders="1" name="Variable" id="12">
                    <mxCell style="text;html=1;strokeColor=none;fillColor=none;align=center;verticalAlign=middle;whiteSpace=wrap;overflow=hidden;" vertex="1" parent="1">
                        <mxGeometry x="420" y="380" width="150" height="20" as="geometry"/>
                    </mxCell>
                </UserObject>
                <mxCell id="46" style="edgeStyle=none;html=1;exitX=0;exitY=0.5;exitDx=0;exitDy=0;entryX=1;entryY=0.5;entryDx=0;entryDy=0;" edge="1" parent="1" source="13" target="45">
                    <mxGeometry relative="1" as="geometry"/>
                </mxCell>
                <mxCell id="13" value="Join Results" style="rounded=0;whiteSpace=wrap;html=1;fillColor=#D2E0B1;" vertex="1" parent="1">
                    <mxGeometry x="210" y="690" width="120" height="60" as="geometry"/>
                </mxCell>
                <mxCell id="52" style="edgeStyle=none;html=1;exitX=0;exitY=0.75;exitDx=0;exitDy=0;entryX=1;entryY=0.75;entryDx=0;entryDy=0;" edge="1" parent="1" source="14" target="4">
                    <mxGeometry relative="1" as="geometry"/>
                </mxCell>
                <mxCell id="14" value="2. Order Trace Run&lt;div&gt;&lt;span style=&quot;color: rgb(63, 63, 63);&quot;&gt;[Fault_1]&lt;/span&gt;&lt;/div&gt;" style="rounded=0;whiteSpace=wrap;html=1;fillColor=#FF9999;" vertex="1" parent="1">
                    <mxGeometry x="490" y="460" width="120" height="60" as="geometry"/>
                </mxCell>
                <mxCell id="15" value="Check Run 1&lt;div&gt;[Fault_2]&lt;/div&gt;" style="rounded=0;whiteSpace=wrap;html=1;fillColor=#FF9999;" vertex="1" parent="1">
                    <mxGeometry x="490" y="520" width="120" height="60" as="geometry"/>
                </mxCell>
                <mxCell id="16" value="Check Run n&lt;div&gt;&lt;span style=&quot;color: rgb(63, 63, 63);&quot;&gt;[Fault_2]&lt;/span&gt;&lt;/div&gt;" style="rounded=0;whiteSpace=wrap;html=1;fillColor=#FF9999;" vertex="1" parent="1">
                    <mxGeometry x="490" y="600" width="120" height="60" as="geometry"/>
                </mxCell>
                <UserObject label="..." placeholders="1" name="Variable" id="17">
                    <mxCell style="text;html=1;strokeColor=none;fillColor=none;align=center;verticalAlign=middle;whiteSpace=wrap;overflow=hidden;" vertex="1" parent="1">
                        <mxGeometry x="510" y="580" width="80" height="20" as="geometry"/>
                    </mxCell>
                </UserObject>
                <mxCell id="18" value="" style="endArrow=classic;html=1;entryX=-0.003;entryY=0.346;entryDx=0;entryDy=0;entryPerimeter=0;" edge="1" parent="1" target="14">
                    <mxGeometry width="50" height="50" relative="1" as="geometry">
                        <mxPoint x="330" y="480" as="sourcePoint"/>
                        <mxPoint x="520" y="480.3399999999999" as="targetPoint"/>
                    </mxGeometry>
                </mxCell>
                <UserObject label="&lt;span style=&quot;color: rgb(0, 0, 0);&quot;&gt;Fault_1, Fault_2&lt;/span&gt;" placeholders="1" name="Variable" id="19">
                    <mxCell style="text;html=1;strokeColor=none;fillColor=none;align=center;verticalAlign=middle;whiteSpace=wrap;overflow=hidden;" vertex="1" parent="1">
                        <mxGeometry x="360" y="460" width="110" height="20" as="geometry"/>
                    </mxCell>
                </UserObject>
                <mxCell id="20" value="Fault_1, Fault_2" style="rounded=0;whiteSpace=wrap;html=1;fillColor=#D2E0B1;" vertex="1" parent="1">
                    <mxGeometry x="210" y="290" width="120" height="30" as="geometry"/>
                </mxCell>
                <mxCell id="21" value="" style="endArrow=classic;html=1;exitX=0;exitY=0.75;exitDx=0;exitDy=0;entryX=1;entryY=0.75;entryDx=0;entryDy=0;" edge="1" parent="1" source="6" target="3">
                    <mxGeometry width="50" height="50" relative="1" as="geometry">
                        <mxPoint x="360" y="610" as="sourcePoint"/>
                        <mxPoint x="410" y="560" as="targetPoint"/>
                    </mxGeometry>
                </mxCell>
                <UserObject label="Number of checks" placeholders="1" name="Variable" id="23">
                    <mxCell style="text;html=1;strokeColor=none;fillColor=none;align=center;verticalAlign=middle;whiteSpace=wrap;overflow=hidden;" vertex="1" parent="1">
                        <mxGeometry x="420" y="400" width="150" height="20" as="geometry"/>
                    </mxCell>
                </UserObject>
                <UserObject label="Number of checks" placeholders="1" name="Variable" id="26">
                    <mxCell style="text;html=1;strokeColor=none;fillColor=none;align=center;verticalAlign=middle;whiteSpace=wrap;overflow=hidden;" vertex="1" parent="1">
                        <mxGeometry x="360" y="480" width="110" height="20" as="geometry"/>
                    </mxCell>
                </UserObject>
                <UserObject label="&lt;font style=&quot;font-size: 18px;&quot;&gt;Recusive&lt;/font&gt;" placeholders="1" name="Variable" id="28">
                    <mxCell style="text;html=1;strokeColor=none;fillColor=none;align=center;verticalAlign=middle;whiteSpace=wrap;overflow=hidden;shadow=0;fontStyle=1" vertex="1" parent="1">
                        <mxGeometry x="310" y="610" width="150" height="30" as="geometry"/>
                    </mxCell>
                </UserObject>
                <mxCell id="49" style="edgeStyle=none;html=1;exitX=0.5;exitY=1;exitDx=0;exitDy=0;entryX=0.5;entryY=0;entryDx=0;entryDy=0;" edge="1" parent="1" source="34" target="36">
                    <mxGeometry relative="1" as="geometry"/>
                </mxCell>
                <mxCell id="34" value="Set 1. Order Trace Run&amp;nbsp;&lt;span style=&quot;background-color: transparent;&quot;&gt;[]&lt;/span&gt;" style="rounded=0;whiteSpace=wrap;html=1;" vertex="1" parent="1">
                    <mxGeometry x="40" y="90" width="120" height="40" as="geometry"/>
                </mxCell>
                <mxCell id="50" style="edgeStyle=none;html=1;exitX=0.5;exitY=1;exitDx=0;exitDy=0;entryX=0.5;entryY=0;entryDx=0;entryDy=0;" edge="1" parent="1" source="36" target="37">
                    <mxGeometry relative="1" as="geometry"/>
                </mxCell>
                <mxCell id="36" value="Get list of Faults" style="rounded=0;whiteSpace=wrap;html=1;" vertex="1" parent="1">
                    <mxGeometry x="40" y="150" width="120" height="30" as="geometry"/>
                </mxCell>
                <mxCell id="51" style="edgeStyle=none;html=1;exitX=0.5;exitY=1;exitDx=0;exitDy=0;entryX=0.5;entryY=0;entryDx=0;entryDy=0;" edge="1" parent="1" source="37" target="38">
                    <mxGeometry relative="1" as="geometry"/>
                </mxCell>
                <mxCell id="37" value="Generate i_product of Faults" style="rounded=0;whiteSpace=wrap;html=1;" vertex="1" parent="1">
                    <mxGeometry x="40" y="200" width="120" height="40" as="geometry"/>
                </mxCell>
                <mxCell id="39" style="edgeStyle=none;html=1;exitX=1;exitY=0.5;exitDx=0;exitDy=0;entryX=0;entryY=0.25;entryDx=0;entryDy=0;" edge="1" parent="1" source="38" target="20">
                    <mxGeometry relative="1" as="geometry"/>
                </mxCell>
                <mxCell id="38" value="Loop over all pairs" style="rounded=0;whiteSpace=wrap;html=1;fillColor=#A1B2C9;" vertex="1" parent="1">
                    <mxGeometry x="40" y="255" width="120" height="85" as="geometry"/>
                </mxCell>
                <UserObject label="&lt;font style=&quot;font-size: 18px;&quot;&gt;Loop round&lt;/font&gt;" placeholders="1" name="Variable" id="41">
                    <mxCell style="text;html=1;strokeColor=none;fillColor=none;align=center;verticalAlign=middle;whiteSpace=wrap;overflow=hidden;shadow=0;fontStyle=1" vertex="1" parent="1">
                        <mxGeometry x="430" y="290" width="150" height="30" as="geometry"/>
                    </mxCell>
                </UserObject>
                <UserObject label="&lt;font style=&quot;font-size: 24px;&quot;&gt;Double fault attack&lt;/font&gt;" placeholders="1" name="Variable" id="43">
                    <mxCell style="text;html=1;strokeColor=none;fillColor=none;align=center;verticalAlign=middle;whiteSpace=wrap;overflow=hidden;shadow=0;fontStyle=1" vertex="1" parent="1">
                        <mxGeometry x="370" y="40" width="150" height="90" as="geometry"/>
                    </mxCell>
                </UserObject>
                <mxCell id="48" style="edgeStyle=none;html=1;exitX=0.5;exitY=1;exitDx=0;exitDy=0;entryX=0.5;entryY=0;entryDx=0;entryDy=0;" edge="1" parent="1" source="45" target="47">
                    <mxGeometry relative="1" as="geometry"/>
                </mxCell>
                <mxCell id="45" value="Check results" style="rounded=0;whiteSpace=wrap;html=1;fillColor=#A1B2C9;" vertex="1" parent="1">
                    <mxGeometry x="40" y="690" width="120" height="60" as="geometry"/>
                </mxCell>
                <mxCell id="47" value="Return results" style="rounded=0;whiteSpace=wrap;html=1;" vertex="1" parent="1">
                    <mxGeometry x="40" y="790" width="120" height="60" as="geometry"/>
                </mxCell>
            </root>
        </mxGraphModel>
    </diagram>
</mxfile>